<svg
                    width="22"
                    height="21"
                    viewBox="0 0 22 21"
                    fill="none"
                    xmlns="http://www.w3.org/2000/svg"
                  >
                    <path
                      fill-rule="evenodd"
                      clip-rule="evenodd"
                      d="M21.5631 9.49998L15.2388 3.13248C11.7218 -0.377412 6.02724 -0.377412 2.51032 3.13248L2.50188 3.14092L1.21095 4.47498C0.932771 4.77393 0.944878 5.24048 1.23818 5.5246C1.53149 5.80871 1.99819 5.80597 2.28813 5.51842L3.57532 4.18904C4.09319 3.67128 4.68416 3.23224 5.32938 2.88592L9.68876 7.24998L0.688759 16.25C0.40738 16.5313 0.249298 16.9129 0.249298 17.3108C0.249298 17.7086 0.40738 18.0902 0.688759 18.3715L2.62845 20.3112C2.90976 20.5926 3.29134 20.7507 3.68923 20.7507C4.08711 20.7507 4.46869 20.5926 4.75001 20.3112L13.75 11.3112L15.0944 12.6556L16.75 14.3094C17.0313 14.5907 17.4129 14.7488 17.8108 14.7488C18.2087 14.7488 18.5903 14.5907 18.8716 14.3094L21.5613 11.6197C22.1465 11.0346 22.1473 10.0861 21.5631 9.49998ZM3.68876 19.25L1.75001 17.3103L8.12501 10.9353L10.0638 12.875L3.68876 19.25ZM13.2194 9.71748L11.125 11.8128L9.18532 9.87498L11.2806 7.77967C11.4215 7.63899 11.5006 7.4481 11.5006 7.24904C11.5006 7.04999 11.4215 6.85909 11.2806 6.71842L6.84251 2.28123C9.45334 1.54593 12.2577 2.27759 14.1766 4.19467L18.3222 8.36748L15.625 11.0619L14.2806 9.71748C14.14 9.57665 13.9491 9.49752 13.75 9.49752C13.551 9.49752 13.3601 9.57665 13.2194 9.71748ZM17.8131 13.2481L16.6881 12.1231L19.375 9.42967L20.5 10.5547L17.8131 13.2481Z"
                      fill="#121417"
                    />
                  </svg>