<svg
                    width="24"
                    height="18"
                    viewBox="0 0 24 18"
                    fill="none"
                    xmlns="http://www.w3.org/2000/svg"
                  >
                    <path
                      fill-rule="evenodd"
                      clip-rule="evenodd"
                      d="M22.95 10.1C22.6186 10.3485 22.1485 10.2814 21.9 9.94999C20.9833 8.71774 19.5358 7.99403 18 7.99999C17.6985 7.99996 17.4263 7.81936 17.3091 7.54155C17.2304 7.35514 17.2304 7.14485 17.3091 6.95843C17.4263 6.68062 17.6985 6.50002 18 6.49999C19.1692 6.49989 20.1435 5.60424 20.2418 4.43915C20.3401 3.27405 19.5297 2.22783 18.377 2.03183C17.2243 1.83583 16.1136 2.55538 15.8212 3.68749C15.7177 4.08876 15.3085 4.33011 14.9072 4.22655C14.5059 4.123 14.2646 3.71376 14.3681 3.31249C14.7687 1.76265 16.1088 0.63793 17.7047 0.512357C19.3005 0.386784 20.8001 1.28805 21.4381 2.75617C22.0761 4.22429 21.7119 5.93554 20.5312 7.01655C21.5511 7.45811 22.4376 8.15882 23.1028 9.04905C23.2222 9.20859 23.2731 9.40906 23.2444 9.60623C23.2158 9.80339 23.1098 9.98105 22.95 10.1ZM17.8987 15.875C18.0465 16.1075 18.055 16.4023 17.9207 16.6429C17.7865 16.8834 17.5311 17.031 17.2557 17.0273C16.9802 17.0236 16.7289 16.8691 16.6012 16.625C15.64 14.9973 13.8903 13.9986 12 13.9986C10.1097 13.9986 8.36001 14.9973 7.39875 16.625C7.27105 16.8691 7.0198 17.0236 6.74433 17.0273C6.46887 17.031 6.21353 16.8834 6.07927 16.6429C5.94502 16.4023 5.95345 16.1075 6.10125 15.875C6.82837 14.6257 7.93705 13.6425 9.26437 13.07C7.73297 11.8975 7.11905 9.87947 7.73804 8.05278C8.35704 6.22609 10.0713 4.99699 12 4.99699C13.9287 4.99699 15.643 6.22609 16.262 8.05278C16.8809 9.87947 16.267 11.8975 14.7356 13.07C16.0629 13.6425 17.1716 14.6257 17.8987 15.875ZM12 12.5C13.6569 12.5 15 11.1568 15 9.49999C15 7.84314 13.6569 6.49999 12 6.49999C10.3431 6.49999 9 7.84314 9 9.49999C9 11.1568 10.3431 12.5 12 12.5ZM6.75 7.24999C6.75 6.83578 6.41421 6.49999 6 6.49999C4.83076 6.49989 3.85646 5.60424 3.75816 4.43915C3.65986 3.27405 4.47034 2.22783 5.62303 2.03183C6.77572 1.83583 7.88644 2.55538 8.17875 3.68749C8.2823 4.08876 8.69154 4.33011 9.09281 4.22655C9.49408 4.123 9.73543 3.71376 9.63187 3.31249C9.23134 1.76265 7.89116 0.63793 6.29533 0.512357C4.6995 0.386784 3.1999 1.28805 2.56189 2.75617C1.92388 4.22429 2.28813 5.93554 3.46875 7.01655C2.44995 7.45853 1.56442 8.1592 0.899997 9.04905C0.65121 9.38043 0.718158 9.85074 1.04953 10.0995C1.3809 10.3483 1.85121 10.2814 2.1 9.94999C3.01674 8.71774 4.46415 7.99403 6 7.99999C6.41421 7.99999 6.75 7.6642 6.75 7.24999Z"
                      fill="#121417"
                    />
                  </svg>